HIERARCHY
ROOT hip
{
  OFFSET 0 0 0
  CHANNELS 6 Xposition Yposition Zposition Zrotation Yrotation Xrotation
  JOINT abdomen
  {
    OFFSET 0 20.6881 -0.73152
    CHANNELS 3 Zrotation Xrotation Yrotation
    JOINT chest
    {
      OFFSET 0 11.7043 -0.48768
      CHANNELS 3 Zrotation Xrotation Yrotation
      JOINT neck
      {
        OFFSET 0 22.1894 -2.19456
        CHANNELS 3 Zrotation Xrotation Yrotation
        JOINT head
        {
          OFFSET -0.24384 7.07133 1.2192
          CHANNELS 3 Zrotation Xrotation Yrotation
          JOINT leftEye
          {
            OFFSET 4.14528 8.04674 8.04672
            CHANNELS 3 Zrotation Xrotation Yrotation
            End Site
            {
              OFFSET 1 0 0
            }
          }
          JOINT rightEye
          {
            OFFSET -3.6576 8.04674 8.04672
            CHANNELS 3 Zrotation Xrotation Yrotation
            End Site
            {
              OFFSET 1 0 0
            }
          }
        }
      }
      JOINT rCollar
      {
        OFFSET -2.68224 19.2634 -4.8768
        CHANNELS 3 Zrotation Xrotation Yrotation
        JOINT rShldr
        {
          OFFSET -8.77824 -1.95073 1.46304
          CHANNELS 3 Zrotation Xrotation Yrotation
          JOINT rForeArm
          {
            OFFSET -28.1742 -1.7115 0.48768
            CHANNELS 3 Zrotation Xrotation Yrotation
            JOINT rHand
            {
              OFFSET -22.5879 0.773209 7.07136
              CHANNELS 3 Zrotation Xrotation Yrotation
              JOINT rThumb1
              {
                OFFSET -1.2192 -0.487915 3.41376
                CHANNELS 3 Zrotation Xrotation Yrotation
                JOINT rThumb2
                {
                  OFFSET -3.37035 -0.52449 3.41376
                  CHANNELS 3 Zrotation Xrotation Yrotation
                  End Site
                  {
                    OFFSET -1.78271 -1.18214 1.43049
                  }
                }
              }
              JOINT rIndex1
              {
                OFFSET -7.75947 0.938293 5.60832
                CHANNELS 3 Zrotation Xrotation Yrotation
                JOINT rIndex2
                {
                  OFFSET -2.54057 -0.884171 1.56538
                  CHANNELS 3 Zrotation Xrotation Yrotation
                  End Site
                  {
                    OFFSET -1.62519 -0.234802 1.16502
                  }
                }
              }
              JOINT rMid1
              {
                OFFSET -8.24714 1.18213 3.41376
                CHANNELS 3 Zrotation Xrotation Yrotation
                JOINT rMid2
                {
                  OFFSET -3.10165 -0.590103 1.0647
                  CHANNELS 3 Zrotation Xrotation Yrotation
                  End Site
                  {
                    OFFSET -2.48547 -0.328903 0.83742
                  }
                }
              }
              JOINT rRing1
              {
                OFFSET -8.82822 0.546677 1.51678
                CHANNELS 3 Zrotation Xrotation Yrotation
                JOINT rRing2
                {
                  OFFSET -2.60934 -0.819778 -0.0198488
                  CHANNELS 3 Zrotation Xrotation Yrotation
                  End Site
                  {
                    OFFSET -2.33842 -0.294052 0.168128
                  }
                }
              }
              JOINT rPinky1
              {
                OFFSET -8.27202 -0.0477905 -0.4584
                CHANNELS 3 Zrotation Xrotation Yrotation
                JOINT rPinky2
                {
                  OFFSET -1.82734 -0.647385 -0.700984
                  CHANNELS 3 Zrotation Xrotation Yrotation
                  End Site
                  {
                    OFFSET -1.69225 -0.51767 -0.607171
                  }
                }
              }
            }
          }
        }
      }
      JOINT lCollar
      {
        OFFSET 2.68224 19.2634 -4.8768
        CHANNELS 3 Zrotation Xrotation Yrotation
        JOINT lShldr
        {
          OFFSET 8.77824 -1.95073 1.46304
          CHANNELS 3 Zrotation Xrotation Yrotation
          JOINT lForeArm
          {
            OFFSET 28.1742 -1.7115 0.48768
            CHANNELS 3 Zrotation Xrotation Yrotation
            JOINT lHand
            {
              OFFSET 22.5879 0.773209 7.07136
              CHANNELS 3 Zrotation Xrotation Yrotation
              JOINT lThumb1
              {
                OFFSET 1.2192 -0.487915 3.41376
                CHANNELS 3 Zrotation Xrotation Yrotation
                JOINT lThumb2
                {
                  OFFSET 3.37035 -0.52449 3.41376
                  CHANNELS 3 Zrotation Xrotation Yrotation
                  End Site
                  {
                    OFFSET 1.78271 -1.18214 1.43049
                  }
                }
              }
              JOINT lIndex1
              {
                OFFSET 7.75947 0.938293 5.60832
                CHANNELS 3 Zrotation Xrotation Yrotation
                JOINT lIndex2
                {
                  OFFSET 2.54057 -0.884171 1.56538
                  CHANNELS 3 Zrotation Xrotation Yrotation
                  End Site
                  {
                    OFFSET 1.62519 -0.234802 1.16502
                  }
                }
              }
              JOINT lMid1
              {
                OFFSET 8.24714 1.18213 3.41376
                CHANNELS 3 Zrotation Xrotation Yrotation
                JOINT lMid2
                {
                  OFFSET 3.10165 -0.590103 1.0647
                  CHANNELS 3 Zrotation Xrotation Yrotation
                  End Site
                  {
                    OFFSET 2.48547 -0.328903 0.83742
                  }
                }
              }
              JOINT lRing1
              {
                OFFSET 8.82822 0.546677 1.51678
                CHANNELS 3 Zrotation Xrotation Yrotation
                JOINT lRing2
                {
                  OFFSET 2.60934 -0.819778 -0.0198488
                  CHANNELS 3 Zrotation Xrotation Yrotation
                  End Site
                  {
                    OFFSET 2.33842 -0.294052 0.168128
                  }
                }
              }
              JOINT lPinky1
              {
                OFFSET 8.27202 -0.0477905 -0.4584
                CHANNELS 3 Zrotation Xrotation Yrotation
                JOINT lPinky2
                {
                  OFFSET 1.82734 -0.647385 -0.700984
                  CHANNELS 3 Zrotation Xrotation Yrotation
                  End Site
                  {
                    OFFSET 1.69225 -0.51767 -0.607171
                  }
                }
              }
            }
          }
        }
      }
    }
  }
  JOINT rButtock
  {
    OFFSET -8.77824 4.35084 1.2192
    CHANNELS 3 Zrotation Xrotation Yrotation
    JOINT rThigh
    {
      OFFSET 0 -1.70687 -2.19456
      CHANNELS 3 Zrotation Xrotation Yrotation
      JOINT rShin
      {
        OFFSET 0 -36.8199 0.73152
        CHANNELS 3 Zrotation Xrotation Yrotation
        JOINT rFoot
        {
          OFFSET 0.73152 -45.1104 -5.12064
          CHANNELS 3 Zrotation Xrotation Yrotation
          End Site
          {
            OFFSET -1.1221 -3.69964 12.103
          }
        }
      }
    }
  }
  JOINT lButtock
  {
    OFFSET 8.77824 4.35084 1.2192
    CHANNELS 3 Zrotation Xrotation Yrotation
    JOINT lThigh
    {
      OFFSET 0 -1.70687 -2.19456
      CHANNELS 3 Zrotation Xrotation Yrotation
      JOINT lShin
      {
        OFFSET 0 -36.8199 0.73152
        CHANNELS 3 Zrotation Xrotation Yrotation
        JOINT lFoot
        {
          OFFSET -0.73152 -45.1104 -5.12064
          CHANNELS 3 Zrotation Xrotation Yrotation
          End Site
          {
            OFFSET 1.1221 -3.69964 12.103
          }
        }
      }
    }
  }
}
MOTION
Frames:	4
Frame Time:	0.03333
-74.84136428683996 1.394121814519167 -0.9488161653280258 5.000506401062012 22.299922943115234 -48.66139221191406 -39.907283782958984 49.65720748901367 -52.7787971496582 -23.79375457763672 -0.3139515519142151 -53.61360549926758 80.98457336425781 18.331090927124023 131.84445190429688 177.90371704101562 36.99611282348633 15.967369079589844 -1.343245506286621 -3.28926420211792 153.69992065429688 3.672187089920044 -15.829424858093262 90.78157043457031 82.39258575439453 -54.311031341552734 -153.62286376953125 159.7824249267578 -35.903770446777344 90.54969787597656 69.01093292236328 36.99843978881836 -177.11087036132812 158.2023162841797 39.998783111572266 16.293668746948242 112.8996353149414 -58.77214050292969 -86.19251251220703 -109.4929428100586 -33.305606842041016 -152.4044952392578 -112.22785949707031 -41.488468170166016 113.9181137084961 114.4783935546875 -16.465538024902344 171.03732299804688 132.7169952392578 51.69890213012695 47.702552795410156 145.9701385498047 -76.03230285644531 -153.86569213867188 174.1475830078125 -25.662094116210938 22.71897315979004 -178.394287109375 26.103548049926758 -50.978111267089844 -178.4824676513672 -1.6953877210617065 73.66301727294922 -60.683650970458984 50.46446990966797 -81.79862213134766 -120.12045288085938 43.42972946166992 -115.20291137695312 -56.42992401123047 4.680840969085693 -110.415771484375 123.97262573242188 11.953262329101562 -28.55116844177246 -126.47845458984375 4.776479244232178 174.47396850585938 -106.54096984863281 46.635597229003906 63.797855377197266 128.42965698242188 -39.53538513183594 79.43012237548828 161.94662475585938 -52.46816635131836 -86.2440185546875 -99.51654052734375 -3.817755699157715 -87.37342071533203 85.43891143798828 14.024670600891113 -103.35283660888672 -1.2556902170181274 -19.41889190673828 115.98947143554688 57.16245651245117 43.179073333740234 -62.587711334228516 -11.65884017944336 -57.18153381347656 79.1436538696289 132.56964111328125 -46.964805603027344 16.76226043701172 115.36625671386719 -61.23771667480469 -163.89486694335938 -124.435302734375 -39.201759338378906 -72.82892608642578 -178.96092224121094 -18.641563415527344 -103.38581848144531 -81.72076416015625 -2.386995315551758 94.7504653930664 34.059051513671875 28.444849014282227 -121.96807098388672 106.4965591430664 -70.75654602050781 24.96535301208496 21.93896484375 -59.613162994384766 7.497277736663818 -11.561899185180664 9.180278778076172 133.514404296875 -75.90057373046875 -24.082874298095703 81.1908950805664
-76.24089205637574 1.419311761856079 -0.9875823743641376 2.7575361728668213 20.50589942932129 -46.810997009277344 -42.483802795410156 49.807220458984375 -51.22689437866211 -23.442808151245117 -1.9599088430404663 -53.517520904541016 81.27761840820312 17.578954696655273 129.5133514404297 176.09996032714844 36.04396057128906 17.951862335205078 -2.161069631576538 -1.9218416213989258 154.28070068359375 2.309926986694336 -16.492353439331055 90.05464935302734 81.38739776611328 -54.51105499267578 -154.52174377441406 160.08282470703125 -35.98732376098633 91.11786651611328 68.27928161621094 36.66665267944336 -177.1368408203125 153.82643127441406 41.261898040771484 17.424976348876953 115.5145034790039 -61.984989166259766 -82.34877014160156 -110.55682373046875 -32.530155181884766 -153.4550323486328 -111.34523010253906 -41.19961166381836 115.97626495361328 115.75801086425781 -16.516700744628906 170.81153869628906 132.3650360107422 51.3122673034668 47.540618896484375 140.11070251464844 -75.79341125488281 -158.7821502685547 174.09542846679688 -25.5639591217041 22.843059539794922 -178.02760314941406 26.941850662231445 -52.151649475097656 -176.7487335205078 -1.5894296169281006 74.1368179321289 -60.49808883666992 50.85969924926758 -82.10250091552734 -119.95618438720703 43.88701629638672 -115.0511703491211 -56.25114059448242 4.044398307800293 -109.1256103515625 127.48936462402344 11.719793319702148 -29.53514289855957 -126.30097961425781 4.178837299346924 173.68731689453125 -110.00708770751953 47.48892593383789 66.18336486816406 126.97039794921875 -39.989341735839844 79.53014373779297 159.9176483154297 -51.497100830078125 -88.4894027709961 -100.68093872070312 -4.290676593780518 -88.108154296875 87.94599914550781 14.022687911987305 -107.1280517578125 -0.04288218542933464 -19.050983428955078 118.12112426757812 58.175697326660156 42.52677917480469 -63.7940788269043 -14.017913818359375 -57.649940490722656 77.58419799804688 131.26963806152344 -47.6328125 16.71866798400879 115.39155578613281 -60.17376708984375 -163.24644470214844 -123.95549774169922 -39.15102767944336 -72.5317611694336 -177.5303192138672 -17.792518615722656 -102.87797546386719 -81.76284790039062 -1.854380488395691 95.5204086303711 30.869848251342773 28.399171829223633 -118.01467895507812 107.43461608886719 -71.1173324584961 25.08877944946289 23.433679580688477 -59.896820068359375 10.828890800476074 -11.42032241821289 8.668932914733887 132.84725952148438 -74.75687408447266 -24.286712646484375 80.78023529052734
-77.64044813811779 1.3769077137112617 -1.0167177766561508 2.5163779258728027 18.72934341430664 -45.94629669189453 -42.127410888671875 49.02950668334961 -51.17996597290039 -23.752702713012695 -1.655623197555542 -54.130313873291016 81.45026397705078 15.999653816223145 130.05401611328125 177.30865478515625 35.388282775878906 17.37995147705078 -1.9537960290908813 -1.5578184127807617 153.5220184326172 1.7700985670089722 -15.879973411560059 90.44447326660156 82.3795394897461 -54.357261657714844 -153.38323974609375 159.3531951904297 -35.0651741027832 90.510498046875 68.65888977050781 37.19538116455078 -177.7428436279297 154.22482299804688 39.135799407958984 17.26398468017578 115.33858489990234 -59.946319580078125 -81.41191864013672 -108.38720703125 -31.91715431213379 -151.19595336914062 -111.47848510742188 -40.71352005004883 116.05769348144531 115.90824890136719 -17.220001220703125 170.43585205078125 131.9170684814453 50.322662353515625 48.08735656738281 141.70240783691406 -76.02872467041016 -157.19271850585938 174.60354614257812 -26.99327278137207 23.123544692993164 -178.49432373046875 27.008560180664062 -51.28435134887695 -176.1554412841797 -2.4450831413269043 74.64842987060547 -61.47406768798828 50.2716064453125 -81.46863555908203 -119.6462173461914 44.47687911987305 -116.16754913330078 -57.128177642822266 4.972508907318115 -108.69414520263672 127.97211456298828 11.68083381652832 -29.53497886657715 -126.23572540283203 3.617889642715454 173.3162841796875 -109.56405639648438 47.04538345336914 66.40323638916016 129.77960205078125 -39.735965728759766 82.3893814086914 160.13487243652344 -52.99393844604492 -87.72244262695312 -100.6875 -4.745510101318359 -87.81092834472656 86.71973419189453 13.137702941894531 -107.57076263427734 -2.1786558628082275 -17.868955612182617 115.80748748779297 57.40979766845703 42.9377326965332 -63.60894775390625 -13.799720764160156 -56.71567153930664 78.40335845947266 131.54087829589844 -47.147239685058594 16.203760147094727 114.89885711669922 -59.93265151977539 -163.67230224609375 -126.36785125732422 -38.65599060058594 -75.03852844238281 -178.44615173339844 -17.57918357849121 -103.32593536376953 -81.36176300048828 -1.6746702194213867 95.20891571044922 32.00479507446289 28.551074981689453 -118.46968078613281 108.9706039428711 -71.61799621582031 26.966501235961914 23.297199249267578 -60.32396697998047 9.995665550231934 -11.311668395996094 8.282118797302246 132.7378387451172 -75.57930755615234 -24.803171157836914 81.4048843383789
-79.06513717025518 1.3109135441482067 -1.0151500813663006 3.4411568641662598 18.177345275878906 -46.01123809814453 -39.72953414916992 48.06019973754883 -52.37190628051758 -24.428171157836914 -0.04856959357857704 -54.628814697265625 81.40365600585938 14.754936218261719 132.4884490966797 -179.99664306640625 35.308349609375 15.146329879760742 -1.095413088798523 -2.1437604427337646 152.1463623046875 2.2942185401916504 -14.613655090332031 91.48445129394531 84.2226333618164 -54.13249588012695 -151.5516357421875 158.2964630126953 -33.98775100708008 89.34034729003906 69.70265197753906 37.98462677001953 -178.39247131347656 157.68458557128906 35.52220916748047 16.543827056884766 112.97737884521484 -55.046382904052734 -83.35558319091797 -105.2423324584961 -31.71173667907715 -148.24822998046875 -112.28939819335938 -40.432861328125 114.53302764892578 115.19263458251953 -17.957029342651367 170.2373809814453 131.58555603027344 49.53678894042969 48.791202545166016 148.44822692871094 -76.27754211425781 -151.197021484375 175.28587341308594 -28.526227951049805 23.39025115966797 -179.27352905273438 26.416168212890625 -49.41141128540039 -176.7169647216797 -3.4209096431732178 74.80402374267578 -62.55965805053711 49.2636833190918 -80.55668640136719 -119.36735534667969 44.795169830322266 -117.62158966064453 -58.237640380859375 6.484704971313477 -109.29761505126953 125.7267837524414 11.715584754943848 -28.7646427154541 -126.30538177490234 3.457853317260742 173.5163116455078 -106.6985092163086 45.86085510253906 65.23857879638672 133.7168731689453 -38.96274948120117 85.33776092529297 162.01206970214844 -55.46578598022461 -85.05089569091797 -99.9043960571289 -4.873432636260986 -86.89151763916016 83.30975341796875 12.12128734588623 -105.34695434570312 -5.579586505889893 -16.720701217651367 111.70213317871094 55.826045989990234 43.77145767211914 -62.5084342956543 -11.610745429992676 -55.15176773071289 80.61787414550781 132.7342071533203 -45.863739013671875 15.700614929199219 114.49534606933594 -60.49592971801758 -164.38888549804688 -129.15261840820312 -38.277523040771484 -77.97493743896484 179.57373046875 -17.965055465698242 -104.16775512695312 -80.96831512451172 -1.8467631340026855 94.19929504394531 35.78192901611328 28.691816329956055 -122.0499038696289 110.21470642089844 -71.76705169677734 29.161638259887695 21.992218017578125 -60.53201675415039 6.508681774139404 -11.298145294189453 8.209637641906738 133.0959014892578 -77.47005462646484 -25.360626220703125 82.34040069580078
